<svg width="42" height="42" viewBox="0 0 42 42" fill="none" xmlns="http://www.w3.org/2000/svg">
<path d="M42 21C42 9.40202 32.598 0 21 0H0V21C0 32.598 9.40202 42 21 42C32.598 42 42 32.598 42 21Z" fill="#86A296"/>
<path d="M22.3333 19.5V12.4167C22.3333 12.0409 22.1841 11.6806 21.9184 11.4149C21.6527 11.1493 21.2924 11 20.9167 11C20.5409 11 20.1806 11.1493 19.9149 11.4149C19.6493 11.6806 19.5 12.0409 19.5 12.4167V19.5H12.4167C12.0409 19.5 11.6806 19.6493 11.4149 19.9149C11.1493 20.1806 11 20.5409 11 20.9167C11 21.2924 11.1493 21.6527 11.4149 21.9184C11.6806 22.1841 12.0409 22.3333 12.4167 22.3333H19.5V29.4167C19.5 29.7924 19.6493 30.1527 19.9149 30.4184C20.1806 30.6841 20.5409 30.8333 20.9167 30.8333C21.2924 30.8333 21.6527 30.6841 21.9184 30.4184C22.1841 30.1527 22.3333 29.7924 22.3333 29.4167V22.3333H29.4167C29.7924 22.3333 30.1527 22.1841 30.4184 21.9184C30.6841 21.6527 30.8333 21.2924 30.8333 20.9167C30.8333 20.5409 30.6841 20.1806 30.4184 19.9149C30.1527 19.6493 29.7924 19.5 29.4167 19.5H22.3333Z" fill="#F8F8F8"/>
</svg>
