<svg width="37" height="36" viewBox="0 0 37 36" fill="none" xmlns="http://www.w3.org/2000/svg">
<path d="M36.1167 29.6644C35.9578 29.473 35.8018 29.2816 35.6487 29.0969C33.5432 26.5503 32.2694 25.0133 32.2694 17.8039C32.2694 14.0715 31.3765 11.009 29.6165 8.71215C28.3188 7.01533 26.5645 5.72812 24.2523 4.77684C24.2226 4.76028 24.196 4.73857 24.1739 4.71271C23.3422 1.92775 21.0664 0.0625 18.4996 0.0625C15.9329 0.0625 13.658 1.92775 12.8263 4.70984C12.8041 4.73475 12.7779 4.75578 12.7488 4.77205C7.35308 6.99332 4.73081 11.255 4.73081 17.8011C4.73081 25.0133 3.45892 26.5503 1.35154 29.094C1.19841 29.2787 1.04242 29.4663 0.88355 29.6616C0.473175 30.1565 0.213169 30.7586 0.134303 31.3966C0.055436 32.0347 0.16101 32.682 0.43853 33.2619C1.02902 34.5061 2.28751 35.2784 3.72402 35.2784H33.2858C34.7156 35.2784 35.9654 34.507 36.5578 33.2686C36.8366 32.6885 36.9431 32.0407 36.8649 31.4019C36.7868 30.7631 36.5271 30.1601 36.1167 29.6644Z" fill="white"/>
</svg>
