<svg width="142" height="13" viewBox="0 0 142 13" fill="none" xmlns="http://www.w3.org/2000/svg">
<path d="M5.36799 13H0V0H5.25296C6.32656 0 7.18288 0.298851 7.82192 0.896552C8.46097 1.49425 8.78049 2.29985 8.78049 3.31334C8.78049 4.09295 8.55683 4.75562 8.10949 5.30135C7.67494 5.83408 7.15092 6.16542 6.53744 6.29535C7.21483 6.3993 7.79636 6.76962 8.28204 7.4063C8.78049 8.02999 9.02972 8.72514 9.02972 9.49175C9.02972 10.5702 8.70381 11.4278 8.05198 12.0645C7.40015 12.6882 6.50549 13 5.36799 13ZM5.11876 5.82759C5.91118 5.82759 6.52466 5.6067 6.95921 5.16492C7.40654 4.71015 7.63021 4.13193 7.63021 3.43029C7.63021 2.74163 7.40654 2.16992 6.95921 1.71514C6.52466 1.24738 5.91118 1.01349 5.11876 1.01349H1.09277V5.82759H5.11876ZM5.19544 11.9865C6.03898 11.9865 6.6972 11.7591 7.1701 11.3043C7.64299 10.8366 7.87944 10.2064 7.87944 9.41379C7.87944 8.69915 7.64299 8.09495 7.1701 7.6012C6.6972 7.09445 6.03898 6.84108 5.19544 6.84108H1.09277V11.9865H5.19544Z" fill="#86A296"/>
<path d="M23.1448 13H15.0353V0H23.1448V1.01349H16.1281V5.82759H23.0106V6.84108H16.1281V11.9865H23.1448V13Z" fill="#86A296"/>
<path d="M33.4869 13H32.3749V1.01349H28.1956V0H37.6662V1.01349H33.4869V13Z" fill="#86A296"/>
<path d="M47.5673 13H46.4554V1.01349H42.276V0H51.7467V1.01349H47.5673V13Z" fill="#86A296"/>
<path d="M65.3862 13H57.2767V0H65.3862V1.01349H58.3695V5.82759H65.252V6.84108H58.3695V11.9865H65.3862V13Z" fill="#86A296"/>
<path d="M80.176 13H78.8532L75.2682 7.62069H72.45V13H71.3572V0H76.1309C77.2556 0 78.1822 0.344328 78.9107 1.03298C79.652 1.72164 80.0227 2.64418 80.0227 3.8006C80.0227 4.93103 79.6776 5.82759 78.9874 6.49025C78.31 7.15292 77.4729 7.50375 76.476 7.54273L80.176 13ZM76.035 6.6072C76.8786 6.6072 77.5624 6.34733 78.0864 5.82759C78.6104 5.29485 78.8724 4.61919 78.8724 3.8006C78.8724 2.98201 78.6104 2.31284 78.0864 1.7931C77.5624 1.27336 76.8786 1.01349 76.035 1.01349H72.45V6.6072H76.035Z" fill="#86A296"/>
<path d="M88.3958 13H85.6734V0H91.6549C92.9969 0 94.0449 0.402799 94.799 1.2084C95.5659 2.001 95.9493 2.995 95.9493 4.1904C95.9493 5.37281 95.5659 6.36682 94.799 7.17241C94.0322 7.97801 92.9841 8.38081 91.6549 8.38081H88.3958V13ZM91.2907 5.94453C91.8402 5.94453 92.2876 5.78861 92.6327 5.47676C92.9905 5.15192 93.1695 4.72314 93.1695 4.1904C93.1695 3.65767 92.9905 3.23538 92.6327 2.92354C92.2876 2.5987 91.8402 2.43628 91.2907 2.43628H88.3958V5.94453H91.2907Z" fill="#86A296"/>
<path d="M109.025 13H100.896V0H103.618V10.5637H109.025V13Z" fill="#86A296"/>
<path d="M126.115 13H123.009L122.223 10.7976H116.74L115.935 13H112.829L117.775 0H121.188L126.115 13ZM121.475 8.36132L119.481 2.76762L117.488 8.36132H121.475Z" fill="#86A296"/>
<path d="M142 13H139.374L133.277 4.52174V13H130.555V0H133.354L139.278 8.16642V0H142V13Z" fill="#86A296"/>
</svg>
