<svg width="297" height="294" viewBox="0 0 297 294" fill="none" xmlns="http://www.w3.org/2000/svg">
<path d="M27.5222 165.754C27.5222 165.754 26.4328 200.588 27.5222 214.739C28.6116 228.891 42.7734 272.433 39.5053 277.876C36.2372 283.319 28.0669 284.408 28.0669 284.408M27.5222 165.754C27.5222 165.754 9.00282 167.931 2.46658 159.222C-4.06966 150.514 13.3603 133.097 13.3603 133.097M27.5222 165.754H63.4715M13.3603 133.097C13.3603 133.097 3.55601 115.68 2.46658 103.705C1.37715 91.7311 19.8966 56.897 19.8966 56.897L24.2541 55.5572M13.3603 133.097C13.3603 133.097 15.539 159.222 19.8966 159.222C24.2541 159.222 19.8966 149.425 19.8966 149.425H23.1647L17.7179 124.388M59.114 112.414V96.0854C59.114 96.0854 63.4715 110.237 70.0078 108.06C72.8891 107.1 80.0045 100.217 87.0609 92.8197M59.114 112.414C59.114 112.414 65.534 119.935 72.1866 129.094M59.114 112.414C59.114 112.414 49.4985 118 42.7734 117.857C36.4504 117.722 27.5222 112.414 27.5222 112.414M27.5222 112.414V88.4654C27.5222 88.4654 17.3446 102.166 16.6284 112.414C16.3011 117.098 17.7179 124.388 17.7179 124.388M27.5222 112.414L17.7179 124.388M63.4715 165.754C63.4715 165.754 81.9909 169.019 86.3484 159.222C88.7415 153.842 80.2914 140.253 72.1866 129.094M63.4715 165.754C63.4715 165.754 66.7396 187.525 66.7396 199.499C66.7396 211.474 61.2928 273.522 63.4715 277.876C65.6503 282.23 74.9099 284.408 74.9099 284.408M24.2541 55.5572C24.2541 55.5572 16.6285 41.657 16.6284 35.1256C16.6284 28.5942 18.8071 9 39.5053 9C60.2035 9 60.2033 28.5942 59.114 35.1256C58.0247 41.657 53.6671 57.208 53.6671 57.208M24.2541 55.5572L29.1562 54.0499M53.6671 57.208L47.1309 52.5427L45.6058 54.7198M53.6671 57.208C53.6671 57.208 67.829 62.3398 70.0078 68.8712C72.1866 75.4026 64.5608 84.1111 70.0078 85.1997C71.8987 85.5776 76.1529 83.7252 80.9016 81.1455M29.1562 54.0499L34.0584 52.5427L35.1478 54.7198M29.1562 54.0499L27.5222 42.7456H34.0584M34.0584 42.7456L43.8628 25.3285C43.8628 25.3285 49.3097 38.3913 47.1309 42.7456C44.9521 47.0999 42.7734 43.8342 42.7734 43.8342L45.6058 54.7198M34.0584 42.7456L38.4159 46.0113L35.1478 54.7198M45.6058 54.7198C45.6058 54.7198 44.9522 63.4284 39.5053 63.4284C34.0584 63.4284 35.1478 54.7198 35.1478 54.7198M28.0669 284.408C28.0669 284.408 12.2709 287.673 16.6284 290.939C20.9859 294.205 46.1323 293.116 47.1309 290.939C48.1295 288.762 46.1323 278.965 46.1323 278.965M28.0669 284.408C28.0669 284.408 37.3265 286.585 39.5053 285.496C41.684 284.408 46.1323 278.965 46.1323 278.965M46.1323 278.965C46.1323 278.965 39.5053 206.031 39.5053 199.499C39.5053 192.968 45.4968 165.754 45.4968 165.754C45.4968 165.754 52.5778 191.879 53.6671 204.942C54.7565 218.005 53.6671 278.965 53.6671 278.965M53.6671 278.965C53.6671 278.965 52.5778 288.762 53.6671 290.939C54.7565 293.116 81.9909 294.205 86.3484 290.939C90.7059 287.673 74.9099 284.408 74.9099 284.408M53.6671 278.965C53.6671 278.965 58.0246 284.408 61.2928 285.496C64.5609 286.585 74.9099 284.408 74.9099 284.408M80.9016 81.1455C89.8315 76.2944 100.51 68.8712 100.51 68.8712C100.51 68.8712 105.957 69.9598 109.225 68.8712C112.493 67.7826 116.851 56.897 117.94 63.4284C119.03 69.9598 104.868 73.2255 104.868 73.2255C104.868 73.2255 98.2686 80.8342 90.7059 88.9513M80.9016 81.1455C80.9016 81.1455 86.3484 79.7569 88.5272 83.0226C90.7059 86.2883 87.0609 92.8197 87.0609 92.8197M87.0609 92.8197C88.2851 91.5363 89.5076 90.2374 90.7059 88.9513M90.7059 88.9513C90.7059 88.9513 103.778 83.0226 100.51 104.794C97.2422 126.565 72.1866 129.094 72.1866 129.094" stroke="#2C473E" stroke-linecap="round" stroke-linejoin="round"/>
<path d="M98.9678 290.479C98.9678 290.479 137.639 293.371 141.796 290.479C145.954 287.587 136.286 264.642 141.796 260.593C147.307 256.544 177.664 264.835 180.081 260.593C182.498 256.351 174.957 239.963 180.081 232.25C185.205 224.538 230.741 222.417 230.741 222.417M230.741 222.417C230.741 222.417 241.774 219.18 242.826 212.102C243.555 207.193 239.539 195.616 239.539 195.616L228.904 198.316M230.741 222.417C230.741 222.417 221.787 222.396 219.333 218.368C216.879 214.34 216.239 201.883 216.239 201.883L228.904 198.316M230.741 222.417L255.104 220.339H296.499M228.904 198.316C228.904 198.316 226.558 169.102 230.741 152.909C235.708 133.681 250.367 115.022 261.195 112.13C272.023 109.237 273.151 133.617 266.899 145.1C262.774 152.677 248.541 149.912 249.303 158.5C249.883 165.024 260.498 163.846 261.195 170.358C262.219 179.925 245.348 174.535 239.539 182.216C236.106 186.755 228.904 198.316 228.904 198.316ZM228.904 198.316C228.904 198.316 222.143 173.167 208.988 165.731C191.969 156.11 160.262 169.876 159.972 176.046C159.682 182.216 171.9 182.978 180.081 182.216C186.385 181.629 189.377 173.275 195.067 176.046C201.009 178.94 192.526 190.275 198.74 192.531C204.964 194.79 205.69 180.896 212.179 182.216C219.276 183.66 210.705 190.021 217.496 192.531C220.726 193.725 228.904 198.316 228.904 198.316Z" stroke="#2C473E"/>
<path d="M158.641 28.2236C158.641 28.2236 166.075 27.0605 167.64 28.2236C169.205 29.3867 171.749 37.5308 173.509 37.1427C175.27 36.7546 176.64 28.2236 176.64 28.2236C176.64 28.2236 194.247 29.5808 196.204 25.8969C198.16 22.2129 198.356 6.70141 196.204 3.793C194.052 0.884599 153.163 -0.666675 149.641 3.793C146.12 8.25268 146.12 28.2236 149.641 28.2236C153.163 28.2236 158.641 28.2236 158.641 28.2236ZM158.641 28.2236C158.641 28.2236 145.337 14.0746 153.163 7.67087C160.988 1.26715 160.988 16.2022 160.988 16.2022C160.988 16.2022 168.031 5.34415 170.77 10.7732C173.509 16.2022 158.641 28.2236 158.641 28.2236Z" stroke="#2C473E"/>
<path d="M178.54 9.13147C179.448 9.13147 180.178 9.3634 180.73 9.82727C181.287 10.2911 181.565 10.9186 181.565 11.7096C181.565 12.2565 181.392 12.7399 181.045 13.1598C180.703 13.5797 180.146 13.9679 179.375 14.3243C180.312 14.7101 180.972 15.1324 181.353 15.5914C181.733 16.0504 181.924 16.6071 181.924 17.2614C181.924 18.1451 181.614 18.8507 180.994 19.3781C180.378 19.9054 179.551 20.1691 178.511 20.1691C177.432 20.1691 176.604 19.9225 176.028 19.4293C175.452 18.9362 175.164 18.2184 175.164 17.276C175.164 16.6364 175.366 16.0748 175.771 15.5914C176.177 15.108 176.804 14.6954 177.654 14.3536C176.868 13.9825 176.313 13.5919 175.991 13.1818C175.669 12.7667 175.508 12.2711 175.508 11.6949C175.508 11.1823 175.637 10.733 175.896 10.3473C176.155 9.95667 176.516 9.65637 176.98 9.44641C177.449 9.23645 177.969 9.13147 178.54 9.13147ZM175.911 17.3859C175.911 18.0597 176.138 18.5822 176.592 18.9532C177.051 19.3243 177.69 19.5099 178.511 19.5099C179.312 19.5099 179.956 19.3146 180.444 18.924C180.933 18.5284 181.177 17.9938 181.177 17.3199C181.177 16.7145 180.984 16.2238 180.598 15.8478C180.217 15.4669 179.48 15.069 178.386 14.6539C177.488 15.0006 176.851 15.3839 176.475 15.8038C176.099 16.2238 175.911 16.7511 175.911 17.3859ZM178.525 9.79065C177.837 9.79065 177.283 9.96155 176.863 10.3033C176.448 10.6403 176.24 11.1041 176.24 11.6949C176.24 12.0367 176.316 12.3395 176.467 12.6031C176.624 12.8619 176.846 13.0988 177.134 13.3136C177.427 13.5236 177.915 13.7701 178.599 14.0533C179.395 13.7457 179.966 13.4064 180.312 13.0353C180.659 12.6642 180.833 12.2174 180.833 11.6949C180.833 11.109 180.625 10.6451 180.21 10.3033C179.8 9.96155 179.238 9.79065 178.525 9.79065ZM186.78 13.5846C187.922 13.5846 188.821 13.8605 189.475 14.4122C190.134 14.964 190.464 15.7233 190.464 16.6901C190.464 17.7887 190.122 18.6432 189.438 19.2535C188.755 19.8639 187.812 20.1691 186.611 20.1691C186.079 20.1691 185.574 20.1178 185.095 20.0153C184.617 19.9078 184.216 19.7565 183.894 19.5612V18.8068C184.421 19.0753 184.89 19.2633 185.3 19.3707C185.71 19.4733 186.147 19.5245 186.611 19.5245C187.549 19.5245 188.301 19.278 188.867 18.7848C189.434 18.2867 189.717 17.6154 189.717 16.7706C189.717 15.9747 189.441 15.3497 188.889 14.8956C188.337 14.4415 187.588 14.2145 186.641 14.2145C186.006 14.2145 185.342 14.3097 184.648 14.5001L184.209 14.2145L184.634 9.31458H189.79V10.0177H185.322L184.993 13.797C185.754 13.6554 186.35 13.5846 186.78 13.5846Z" fill="#2C473E"/>
<path d="M167.492 128.388C172.751 124.867 163.484 119.656 162.408 113.672C155.803 76.9677 282.329 96.4161 245.642 66.8504C234.835 58.141 219.288 77.2628 210.086 66.8653C197.802 52.9856 241.476 36.7067 245.536 35.304C249.595 33.9013 261.847 33.1901 265.027 35.1589M265.027 35.1589C268.207 37.1278 268.279 46.8731 265.994 49.1394C263.71 51.4056 248.577 52.6576 245.929 49.5963C243.281 46.535 244.511 37.93 246.062 36.8264C247.612 35.7227 251.05 42.7146 254.547 42.6425C258.044 42.5703 265.027 35.1589 265.027 35.1589Z" stroke="#2C473E" stroke-linecap="round" stroke-linejoin="round"/>
</svg>
