<svg width="40" height="40" viewBox="0 0 40 40" fill="none" xmlns="http://www.w3.org/2000/svg">
<path d="M39.8002 20C39.8002 21.8249 39.6418 23.3 37.8169 23.3H23.3002V37.8167C23.3002 39.6383 21.8251 39.8 20.0002 39.8C18.1753 39.8 16.7002 39.6383 16.7002 37.8167V23.3H2.18349C0.361895 23.3 0.200195 21.8249 0.200195 20C0.200195 18.1751 0.361895 16.7 2.18349 16.7H16.7002V2.18331C16.7002 0.358412 18.1753 0.200012 20.0002 0.200012C21.8251 0.200012 23.3002 0.358412 23.3002 2.18331V16.7H37.8169C39.6418 16.7 39.8002 18.1751 39.8002 20Z" fill="#84A295"/>
</svg>
