<svg width="23" height="25" viewBox="0 0 23 25" fill="none" xmlns="http://www.w3.org/2000/svg">
<path d="M5.45833 11.2915H7.875V13.7082H5.45833V11.2915ZM5.45833 16.1248H7.875V18.5415H5.45833V16.1248ZM10.2917 11.2915H12.7083V13.7082H10.2917V11.2915ZM10.2917 16.1248H12.7083V18.5415H10.2917V16.1248ZM15.125 11.2915H17.5417V13.7082H15.125V11.2915ZM15.125 16.1248H17.5417V18.5415H15.125V16.1248Z" fill="#B6B6B6"/>
<path d="M3.04167 24.5832H19.9583C21.2911 24.5832 22.375 23.4993 22.375 22.1665V5.24984C22.375 3.91705 21.2911 2.83317 19.9583 2.83317H17.5417V0.416504H15.125V2.83317H7.875V0.416504H5.45833V2.83317H3.04167C1.70887 2.83317 0.625 3.91705 0.625 5.24984V22.1665C0.625 23.4993 1.70887 24.5832 3.04167 24.5832ZM19.9583 7.6665L19.9595 22.1665H3.04167V7.6665H19.9583Z" fill="#B6B6B6"/>
</svg>
