<svg width="30" height="30" viewBox="0 0 30 30" fill="none" xmlns="http://www.w3.org/2000/svg">
<circle cx="15" cy="15" r="15" fill="#4A6FB7"/>
<path d="M21.6448 10.5486L21.4054 10.6245L20.1307 10.7381L19.7706 11.3131L19.5093 11.23L18.4948 10.3153L18.3476 9.83966L18.1505 9.33241L17.5129 8.76047L16.7607 8.61328L16.7433 8.95756L17.4803 9.67669L17.8409 10.1014L17.4355 10.3133L17.1054 10.216L16.6109 10.0098L16.6277 9.61099L15.9789 9.34412L15.7635 10.2817L15.1095 10.4299L15.1742 10.953L16.0262 11.117L16.1734 10.2812L16.8768 10.3851L17.2037 10.5766H17.7283L18.0874 11.2957L19.0392 12.2614L18.9695 12.6367L18.202 12.5389L16.8758 13.2086L15.9208 14.3541L15.7966 14.8613H15.4538L14.8151 14.5669L14.1948 14.8613L14.3491 15.5158L14.6191 15.2046L15.0937 15.1898L15.0606 15.7775L15.4538 15.8926L15.8465 16.3337L16.4877 16.1534L17.22 16.269L18.0706 16.4977L18.4953 16.5476L19.2155 17.365L20.6053 18.1824L19.7064 19.8998L18.7576 20.3408L18.3975 21.3222L17.0245 22.239L16.8783 22.7676C20.3884 21.9222 22.9995 18.7691 22.9995 14.9993C22.9985 13.3528 22.4994 11.8203 21.6448 10.5486Z" fill="#F8F8F8"/>
<path d="M15.9203 19.1807L15.3377 18.1005L15.8725 16.9862L15.3377 16.8263L14.7372 16.2233L13.407 15.9248L12.9654 15.0009V15.5495H12.7709L11.6244 13.9951V12.7183L10.7841 11.3519L9.44974 11.5897H8.55084L8.09859 11.2933L8.67562 10.8359L8.10011 10.9689C7.40646 12.1535 7.00208 13.5281 7.00208 15.0004C7.00208 19.4176 10.5829 22.9999 15.0005 22.9999C15.3408 22.9999 15.6743 22.9699 16.0044 22.9302L15.9208 21.961C15.9208 21.961 16.288 20.5217 16.288 20.4728C16.2875 20.4234 15.9203 19.1807 15.9203 19.1807Z" fill="#F8F8F8"/>
<path d="M9.97434 9.57958L11.3953 9.38146L12.0502 9.02241L12.7872 9.23478L13.9647 9.1696L14.368 8.53552L14.9563 8.63229L16.3848 8.49834L16.7785 8.06443L17.3336 7.69366L18.119 7.81182L18.4052 7.76853C17.3708 7.28164 16.2198 7 15.0001 7C12.5172 7 10.2972 8.13165 8.83148 9.90858H8.83556L9.97434 9.57958ZM15.3382 7.79552L16.1551 7.34581L16.6797 7.64884L15.9204 8.22689L15.1951 8.29972L14.8687 8.08785L15.3382 7.79552ZM12.9186 7.86122L13.2792 8.01146L13.7513 7.86122L14.0085 8.30685L12.9186 8.59307L12.3945 8.28648C12.394 8.28648 12.9069 7.95646 12.9186 7.86122Z" fill="#F8F8F8"/>
</svg>
