<svg width="40" height="40" viewBox="0 0 40 40" fill="none" xmlns="http://www.w3.org/2000/svg">
<circle cx="20" cy="20" r="20" fill="#F3A592"/>
<path d="M23.9691 22.7162L25.0802 21.6294C25.2538 21.4596 25.5559 21.5784 25.5559 21.823V26.7611C25.5559 27.6611 24.8093 28.3913 23.8892 28.3913H11.6667C10.7465 28.3913 10 27.6611 10 26.7611V14.8063C10 13.9063 10.7465 13.1761 11.6667 13.1761H21.1634C21.41 13.1761 21.535 13.4682 21.3614 13.6414L20.2502 14.7282C20.1981 14.7792 20.1287 14.8063 20.0523 14.8063H11.6667V26.7611H23.8892V22.9064C23.8892 22.8351 23.917 22.7671 23.9691 22.7162ZM29.4067 15.8626L20.2884 24.7811L17.1495 25.1207C16.2397 25.2192 15.4654 24.4686 15.5661 23.572L15.9133 20.5018L25.0316 11.5833C25.8267 10.8056 27.1115 10.8056 27.9032 11.5833L29.4032 13.0505C30.1984 13.8282 30.1984 15.0882 29.4067 15.8626ZM25.976 16.912L23.9586 14.9388L17.5071 21.2524L17.2536 23.4701L19.521 23.2222L25.976 16.912ZM28.2261 14.2052L26.7261 12.738C26.5837 12.5988 26.351 12.5988 26.2122 12.738L25.1392 13.7875L27.1566 15.7607L28.2296 14.7112C28.3685 14.5686 28.3685 14.3444 28.2261 14.2052Z" fill="#F8F8F8"/>
</svg>
