<svg width="15" height="15" viewBox="0 0 15 15" fill="none" xmlns="http://www.w3.org/2000/svg">
<path d="M8.16601 6.6665V1.6665C8.16601 1.40129 8.06066 1.14693 7.87312 0.959397C7.68559 0.77186 7.43123 0.666504 7.16601 0.666504C6.9008 0.666504 6.64644 0.77186 6.45891 0.959397C6.27137 1.14693 6.16601 1.40129 6.16601 1.6665V6.6665H1.16602C0.900799 6.6665 0.646445 6.77186 0.458908 6.9594C0.271372 7.14693 0.166016 7.40129 0.166016 7.6665C0.166016 7.93172 0.271372 8.18607 0.458908 8.37361C0.646445 8.56115 0.900799 8.6665 1.16602 8.6665H6.16601V13.6665C6.16601 13.9317 6.27137 14.1861 6.45891 14.3736C6.64644 14.5611 6.9008 14.6665 7.16601 14.6665C7.43123 14.6665 7.68559 14.5611 7.87312 14.3736C8.06066 14.1861 8.16601 13.9317 8.16601 13.6665V8.6665H13.166C13.4312 8.6665 13.6856 8.56115 13.8731 8.37361C14.0607 8.18607 14.166 7.93172 14.166 7.6665C14.166 7.40129 14.0607 7.14693 13.8731 6.9594C13.6856 6.77186 13.4312 6.6665 13.166 6.6665H8.16601Z" fill="#F3A592"/>
</svg>
