<svg width="23" height="16" viewBox="0 0 23 16" fill="none" xmlns="http://www.w3.org/2000/svg">
<path d="M11.502 11.2C13.1956 11.2 14.5686 9.76731 14.5686 8C14.5686 6.23269 13.1956 4.8 11.502 4.8C9.80832 4.8 8.43534 6.23269 8.43534 8C8.43534 9.76731 9.80832 11.2 11.502 11.2Z" fill="#C4C4C4"/>
<path d="M22.7545 7.13C21.4867 5.084 19.8417 3.346 17.9979 2.1035C15.9581 0.7275 13.706 0 11.4856 0C9.44816 0 7.44478 0.6075 5.531 1.8055C3.57937 3.027 1.81125 4.8115 0.275534 7.109C0.102166 7.36865 0.00668499 7.67623 0.00122459 7.99263C-0.00423581 8.30904 0.0805708 8.62 0.244868 8.886C1.51034 10.9525 3.13901 12.693 4.95408 13.9185C6.99772 15.3 9.19708 16 11.4856 16C13.7237 16 15.9806 15.2785 18.0118 13.914C19.8546 12.6755 21.4962 10.931 22.7593 8.868C22.9179 8.60818 23.0018 8.30633 23.001 7.99827C23.0001 7.6902 22.9146 7.38886 22.7545 7.13ZM11.5019 12.8C10.5921 12.8 9.70271 12.5185 8.94625 11.9911C8.18978 11.4636 7.6002 10.714 7.25204 9.83688C6.90387 8.9598 6.81278 7.99468 6.99027 7.06357C7.16776 6.13246 7.60587 5.27718 8.24918 4.60589C8.8925 3.9346 9.71214 3.47744 10.6044 3.29223C11.4967 3.10702 12.4216 3.20208 13.2622 3.56538C14.1027 3.92868 14.8211 4.54391 15.3266 5.33326C15.832 6.12262 16.1018 7.05065 16.1018 8C16.1004 9.27259 15.6153 10.4926 14.753 11.3925C13.8906 12.2924 12.7214 12.7985 11.5019 12.8Z" fill="#C4C4C4"/>
</svg>
