<svg width="24" height="24" viewBox="0 0 24 24" fill="none" xmlns="http://www.w3.org/2000/svg">
<path d="M11.1778 19.5691L2.17782 6.56907C2.07402 6.41905 2.01323 6.24348 2.00204 6.06138C1.99086 5.87929 2.0297 5.6976 2.11436 5.536C2.19903 5.3744 2.32629 5.23903 2.48236 5.14457C2.63844 5.0501 2.81739 5.00013 2.99982 5.00007L20.9998 5.00007C21.1823 4.99995 21.3614 5.04979 21.5176 5.14418C21.6739 5.23857 21.8013 5.37392 21.8861 5.53556C21.9708 5.69719 22.0098 5.87895 21.9986 6.06113C21.9875 6.24332 21.9267 6.41897 21.8228 6.56907L12.8228 19.5691C12.7304 19.7015 12.6073 19.8097 12.4641 19.8844C12.3209 19.959 12.1618 19.998 12.0003 19.998C11.8388 19.998 11.6797 19.959 11.5365 19.8844C11.3933 19.8097 11.2703 19.7015 11.1778 19.5691Z" fill="#B7CDC1"/>
</svg>
