<svg width="197" height="36" viewBox="0 0 197 36" fill="none" xmlns="http://www.w3.org/2000/svg">
<circle cx="17.607" cy="17.607" r="17.607" fill="#B7CDC1"/>
<circle cx="35.0379" cy="9.68363" r="7.92314" fill="#F7AE9B"/>
<circle cx="35.2156" cy="27.1292" r="7.92314" fill="#E5E5E5"/>
<path d="M10.212 17.2158L16.6516 23.241L25.0019 12.3247" stroke="#7E978C" stroke-width="6"/>
<path d="M32.7489 7.21851L37.6789 12.5006" stroke="#D46043" stroke-width="2"/>
<path d="M32.3969 12.5009L37.6789 7.04272" stroke="#D46043" stroke-width="2"/>
<path d="M33.3574 24.6956C33.3574 24.6956 33.9411 23.2495 35.0501 23.2495C36.1591 23.2495 36.9179 24.0328 36.9179 25.1174C36.9179 26.202 34.6999 27.4674 34.6999 27.4674V29.275" stroke="#B6B6B6" stroke-width="2"/>
<circle cx="34.7265" cy="31.1076" r="0.547772" fill="#B6B6B6"/>
<path d="M60.368 25H55V12H60.253C61.3266 12 62.1829 12.2989 62.8219 12.8966C63.461 13.4943 63.7805 14.2999 63.7805 15.3133C63.7805 16.093 63.5568 16.7556 63.1095 17.3013C62.6749 17.8341 62.1509 18.1654 61.5374 18.2954C62.2148 18.3993 62.7964 18.7696 63.282 19.4063C63.7805 20.03 64.0297 20.7251 64.0297 21.4918C64.0297 22.5702 63.7038 23.4278 63.052 24.0645C62.4002 24.6882 61.5055 25 60.368 25ZM60.1188 17.8276C60.9112 17.8276 61.5247 17.6067 61.9592 17.1649C62.4065 16.7101 62.6302 16.1319 62.6302 15.4303C62.6302 14.7416 62.4065 14.1699 61.9592 13.7151C61.5247 13.2474 60.9112 13.0135 60.1188 13.0135H56.0928V17.8276H60.1188ZM60.1954 23.9865C61.039 23.9865 61.6972 23.7591 62.1701 23.3043C62.643 22.8366 62.8794 22.2064 62.8794 21.4138C62.8794 20.6992 62.643 20.095 62.1701 19.6012C61.6972 19.0945 61.039 18.8411 60.1954 18.8411H56.0928V23.9865H60.1954Z" fill="#86A296"/>
<path d="M78.1448 25H70.0353V12H78.1448V13.0135H71.1281V17.8276H78.0106V18.8411H71.1281V23.9865H78.1448V25Z" fill="#86A296"/>
<path d="M88.4869 25H87.3749V13.0135H83.1956V12H92.6662V13.0135H88.4869V25Z" fill="#86A296"/>
<path d="M102.567 25H101.455V13.0135H97.276V12H106.747V13.0135H102.567V25Z" fill="#86A296"/>
<path d="M120.386 25H112.277V12H120.386V13.0135H113.37V17.8276H120.252V18.8411H113.37V23.9865H120.386V25Z" fill="#86A296"/>
<path d="M135.176 25H133.853L130.268 19.6207H127.45V25H126.357V12H131.131C132.256 12 133.182 12.3443 133.911 13.033C134.652 13.7216 135.023 14.6442 135.023 15.8006C135.023 16.931 134.678 17.8276 133.987 18.4903C133.31 19.1529 132.473 19.5037 131.476 19.5427L135.176 25ZM131.035 18.6072C131.879 18.6072 132.562 18.3473 133.086 17.8276C133.61 17.2949 133.872 16.6192 133.872 15.8006C133.872 14.982 133.61 14.3128 133.086 13.7931C132.562 13.2734 131.879 13.0135 131.035 13.0135H127.45V18.6072H131.035Z" fill="#86A296"/>
<path d="M143.396 25H140.673V12H146.655C147.997 12 149.045 12.4028 149.799 13.2084C150.566 14.001 150.949 14.995 150.949 16.1904C150.949 17.3728 150.566 18.3668 149.799 19.1724C149.032 19.978 147.984 20.3808 146.655 20.3808H143.396V25ZM146.291 17.9445C146.84 17.9445 147.288 17.7886 147.633 17.4768C147.991 17.1519 148.169 16.7231 148.169 16.1904C148.169 15.6577 147.991 15.2354 147.633 14.9235C147.288 14.5987 146.84 14.4363 146.291 14.4363H143.396V17.9445H146.291Z" fill="#86A296"/>
<path d="M164.025 25H155.896V12H158.618V22.5637H164.025V25Z" fill="#86A296"/>
<path d="M181.115 25H178.009L177.223 22.7976H171.74L170.935 25H167.829L172.775 12H176.188L181.115 25ZM176.475 20.3613L174.481 14.7676L172.488 20.3613H176.475Z" fill="#86A296"/>
<path d="M197 25H194.374L188.277 16.5217V25H185.555V12H188.354L194.278 20.1664V12H197V25Z" fill="#86A296"/>
</svg>
